<?xml version="1.0" encoding="utf-8"?>
<!-- Generator: Adobe Illustrator 22.0.1, SVG Export Plug-In . SVG Version: 6.00 Build 0)  -->
<svg version="1.1" id="Capa_1" xmlns="http://www.w3.org/2000/svg" xmlns:xlink="http://www.w3.org/1999/xlink" x="0px" y="0px"
	 viewBox="0 0 279 116" style="enable-background:new 0 0 279 116;" xml:space="preserve">
<style type="text/css">
	.st0{fill:#211915;}
	.st1{fill:#BFC84F;}
	.st2{fill:#FFFFFF;}
</style>
<g>
	<path class="st0" d="M122.2,16.1c3.2,0.1,5.8,1.1,8,3c2.2,1.9,3.3,4.2,3.3,6.8v24.9c0,2.7-1.1,5-3.4,6.9c-2.3,1.9-5,2.9-8.3,2.9
		h-0.2h-11.5V16.1h11.7H122.2z M117.9,22.3v32h3.9c1.1,0,2-0.3,2.7-1c0.8-0.7,1.1-1.5,1.1-2.5V25.9c0-1-0.4-1.8-1.1-2.5
		c-0.8-0.7-1.7-1-2.7-1H117.9z M122.2,16.1c-0.2,0-0.3,0-0.4,0H122.2z"/>
	<path class="st0" d="M159.9,54.3v6.2h-11.7h-7.8v-6.2v-32v-6.2h7.8h7.8v6.2h-7.8v6.2h11.7v6.2h-11.7v19.6H159.9z"/>
	<path class="st0" d="M164,25c0-2.7,1.1-5,3.4-6.9c2.3-1.9,5-2.9,8.3-2.9c3.2,0,6,1,8.3,2.9c2.3,1.9,3.4,4.2,3.4,6.9v3.5h-7.8V25
		c0-1-0.4-1.8-1.1-2.5c-0.8-0.7-1.7-1-2.7-1c-1.1,0-2,0.3-2.7,1c-0.8,0.7-1.1,1.5-1.1,2.5v26.7c0,1,0.4,1.8,1.1,2.5
		c0.8,0.7,1.7,1,2.7,1c1.1,0,2-0.3,2.7-1c0.8-0.7,1.1-1.5,1.1-2.5v-3.5h7.8v3.5c0,2.7-1.1,5-3.4,6.9c-2.3,1.9-5,2.9-8.3,2.9
		c-3.2,0-6-1-8.3-2.9c-2.3-1.9-3.4-4.2-3.4-6.9V25z"/>
	<path class="st0" d="M194.3,16.1h7.8v44.5h-7.8V16.1z"/>
	<path class="st0" d="M221.1,16.1c3.2,0.1,5.8,1.1,8,3c2.2,1.9,3.3,4.2,3.3,6.8v24.9c0,2.7-1.1,5-3.4,6.9c-2.3,1.9-5,2.9-8.3,2.9
		h-0.2H209V16.1h11.7H221.1z M216.9,22.3v32h3.9c1.1,0,2-0.3,2.7-1c0.8-0.7,1.1-1.5,1.1-2.5V25.9c0-1-0.4-1.8-1.1-2.5
		c-0.8-0.7-1.7-1-2.7-1H216.9z M221.1,16.1c-0.2,0-0.3,0-0.4,0H221.1z"/>
	<path class="st0" d="M237.6,25c0-2.7,1.1-5,3.4-6.9c2.3-1.9,5-2.9,8.3-2.9s6,1,8.3,2.9c2.3,1.9,3.4,4.2,3.4,6.9v65.4h-7.8V54.3
		h-7.8v6.2h-7.8V25z M253.2,48.1V37.8V25c0-1-0.4-1.8-1.1-2.5c-0.8-0.7-1.7-1-2.7-1c-1.1,0-2,0.3-2.7,1c-0.8,0.7-1.1,1.5-1.1,2.5
		v12.8v10.4H253.2z"/>
	<g>
		<path class="st0" d="M116.2,75.4c1.7,0,3.1,0.5,4.3,1.5c1.2,1,1.8,2.2,1.8,3.6v5.1c0,1.4-0.6,2.6-1.8,3.6c-1.2,1-2.6,1.5-4.3,1.5
			c-1.7,0-3.1-0.5-4.3-1.5c-1.2-1-1.8-2.2-1.8-3.6v-1.8h4v1.8c0,0.5,0.2,0.9,0.6,1.3c0.4,0.4,0.9,0.5,1.4,0.5c0.6,0,1-0.2,1.4-0.5
			c0.4-0.4,0.6-0.8,0.6-1.3v-5.1c0-0.5-0.2-0.9-0.6-1.3c-0.4-0.4-0.9-0.5-1.4-0.5c-1.7,0-3.1-0.5-4.3-1.5c-1.2-1-1.8-2.2-1.8-3.6
			v-1.8c0-1.4,0.6-2.6,1.8-3.6c1.2-1,2.6-1.5,4.3-1.5c1.7,0,3.1,0.5,4.3,1.5c1.2,1,1.8,2.2,1.8,3.6v1.8h-4v-1.8
			c0-0.5-0.2-0.9-0.6-1.3c-0.4-0.4-0.9-0.5-1.4-0.5c-0.6,0-1,0.2-1.4,0.5c-0.4,0.4-0.6,0.8-0.6,1.3v1.8c0,0.5,0.2,0.9,0.6,1.3
			C115.1,75.2,115.6,75.4,116.2,75.4z"/>
		<path class="st0" d="M116.2,91c-1.8,0-3.3-0.5-4.5-1.6c-1.3-1.1-1.9-2.4-1.9-3.9v-2.2h4.9v2.2c0,0.4,0.1,0.7,0.5,1
			c0.3,0.3,0.7,0.4,1.1,0.4c0.5,0,0.8-0.1,1.1-0.4c0.3-0.3,0.5-0.6,0.5-1v-5.1c0-0.4-0.1-0.7-0.5-1c-0.3-0.3-0.7-0.4-1.1-0.4
			c-1.8,0-3.3-0.5-4.5-1.6c-1.3-1.1-1.9-2.4-1.9-3.9v-1.8c0-1.5,0.6-2.8,1.9-3.9c1.2-1,2.8-1.6,4.5-1.6c1.8,0,3.3,0.5,4.5,1.6
			c1.3,1.1,1.9,2.4,1.9,3.9V74h-4.9v-2.2c0-0.4-0.1-0.7-0.5-1c-0.3-0.3-0.7-0.4-1.1-0.4c-0.5,0-0.8,0.1-1.1,0.4
			c-0.3,0.3-0.5,0.6-0.5,1v1.8c0,0.4,0.1,0.7,0.5,1c0.3,0.3,0.7,0.4,1.1,0.4c1.8,0,3.3,0.5,4.5,1.6c1.3,1.1,1.9,2.4,1.9,3.9v5.1
			c0,1.5-0.6,2.8-1.9,3.9C119.5,90.5,117.9,91,116.2,91z M110.5,84.1v1.4c0,1.3,0.5,2.4,1.6,3.3c1.1,0.9,2.4,1.4,4,1.4
			c1.6,0,2.9-0.5,4-1.4c1.1-0.9,1.6-2,1.6-3.3v-5.1c0-1.3-0.5-2.4-1.6-3.3c-1.1-0.9-2.4-1.4-4-1.4c-0.7,0-1.2-0.2-1.7-0.6
			c-0.5-0.4-0.7-1-0.7-1.6v-1.8c0-0.6,0.2-1.2,0.7-1.6c0.5-0.4,1-0.6,1.7-0.6c0.7,0,1.2,0.2,1.7,0.6c0.5,0.4,0.7,1,0.7,1.6v1.4h3.2
			v-1.4c0-1.3-0.5-2.4-1.6-3.3c-1.1-0.9-2.4-1.4-4-1.4c-1.6,0-2.9,0.5-4,1.4c-1.1,0.9-1.6,2-1.6,3.3v1.8c0,1.3,0.5,2.4,1.6,3.3
			c1.1,0.9,2.4,1.4,4,1.4c0.7,0,1.2,0.2,1.7,0.6c0.5,0.4,0.7,1,0.7,1.6v5.1c0,0.6-0.2,1.2-0.7,1.6c-0.5,0.4-1,0.6-1.7,0.6
			c-0.7,0-1.2-0.2-1.7-0.6c-0.5-0.4-0.7-1-0.7-1.6v-1.4H110.5z"/>
	</g>
	<g>
		<path class="st0" d="M135.9,86.9v3.2h-6h-4v-3.2V70.4v-3.2h4h4v3.2h-4v6.8h6v3.2h-6v6.6H135.9z"/>
		<path class="st0" d="M136.3,90.6h-10.9V66.7h8.9v4.1h-4v5.9h6v4.1h-6v5.8h6V90.6z M126.2,89.8h9.3v-2.4h-6V80h6v-2.4h-6V70h4v-2.4
			h-7.3V89.8z"/>
	</g>
	<g>
		<path class="st0" d="M139.5,67.1h4v18.4c0,0.5,0.2,0.9,0.6,1.3c0.4,0.4,0.9,0.5,1.4,0.5c0.6,0,1-0.2,1.4-0.5
			c0.4-0.4,0.6-0.8,0.6-1.3V67.1h4v18.4c0,1.4-0.6,2.6-1.8,3.6c-1.2,1-2.6,1.5-4.3,1.5s-3.1-0.5-4.3-1.5c-1.2-1-1.8-2.2-1.8-3.6
			V67.1z"/>
		<path class="st0" d="M145.5,91c-1.8,0-3.3-0.5-4.5-1.6c-1.3-1.1-1.9-2.4-1.9-3.9V66.7h4.9v18.8c0,0.4,0.1,0.7,0.5,1
			c0.3,0.3,0.7,0.4,1.1,0.4c0.5,0,0.8-0.1,1.1-0.4c0.3-0.3,0.5-0.6,0.5-1V66.7h4.9v18.8c0,1.5-0.6,2.8-1.9,3.9
			C148.8,90.5,147.3,91,145.5,91z M139.9,67.5v18c0,1.3,0.5,2.4,1.6,3.3c1.1,0.9,2.4,1.4,4,1.4c1.6,0,2.9-0.5,4-1.4
			c1.1-0.9,1.6-2,1.6-3.3v-18H148v18c0,0.6-0.2,1.2-0.7,1.6c-0.5,0.4-1,0.6-1.7,0.6c-0.7,0-1.2-0.2-1.7-0.6c-0.5-0.4-0.7-1-0.7-1.6
			v-18H139.9z"/>
	</g>
	<path class="st0" d="M181.9,66.5l-12.4,36.9l-12.4-36.9h6.6l5.8,17.3l5.8-17.3H181.9z"/>
	<path class="st0" d="M183.7,73.8c0-2.2,0.9-4.1,2.8-5.6c1.8-1.6,4.1-2.3,6.7-2.3c2.6,0,4.9,0.8,6.7,2.3c1.8,1.6,2.8,3.4,2.8,5.6
		v21.7c0,2.2-0.9,4.1-2.8,5.6c-1.9,1.6-4.1,2.3-6.7,2.3c-2.6,0-4.9-0.8-6.7-2.3c-1.9-1.6-2.8-3.4-2.8-5.6V73.8z M190.1,73.8v21.7
		c0,0.8,0.3,1.5,0.9,2.1c0.6,0.6,1.4,0.8,2.2,0.8c0.9,0,1.6-0.3,2.2-0.8c0.6-0.6,0.9-1.2,0.9-2.1V73.8c0-0.8-0.3-1.5-0.9-2.1
		c-0.6-0.6-1.4-0.8-2.2-0.8c-0.9,0-1.6,0.3-2.2,0.8C190.4,72.3,190.1,73,190.1,73.8z"/>
	<path class="st0" d="M221.9,66.5v5.1h-4.8v31.1h-6.3V71.6H206v-5.1H221.9z"/>
	<path class="st0" d="M226.1,73.8c0-2.2,0.9-4.1,2.8-5.6c1.8-1.6,4.1-2.3,6.7-2.3s4.9,0.8,6.7,2.3c1.8,1.6,2.8,3.4,2.8,5.6v21.7
		c0,2.2-0.9,4.1-2.8,5.6c-1.9,1.6-4.1,2.3-6.7,2.3s-4.9-0.8-6.7-2.3c-1.9-1.6-2.8-3.4-2.8-5.6V73.8z M232.5,73.8v21.7
		c0,0.8,0.3,1.5,0.9,2.1c0.6,0.6,1.4,0.8,2.2,0.8c0.9,0,1.6-0.3,2.2-0.8c0.6-0.6,0.9-1.2,0.9-2.1V73.8c0-0.8-0.3-1.5-0.9-2.1
		c-0.6-0.6-1.4-0.8-2.2-0.8c-0.9,0-1.6,0.3-2.2,0.8C232.8,72.3,232.5,73,232.5,73.8z"/>
</g>
<rect x="110.1" y="95.9" class="st1" width="42.4" height="5.7"/>
<rect x="253.2" y="95.9" class="st1" width="7.8" height="5.7"/>
<g transform="translate(0,-1036.3622)">
	<g id="XMLID_1_">
		<g>
			<path d="M100.4,1112.6c0,13.9-11.6,25.4-25.9,25.4c-14.3,0-26-11.6-26-25.6l0-3.2H13.9v-57.6h80.7v46.1h5.7L100.4,1112.6z
				 M74.5,1132.3c11.2,0,20.2-9,20.2-19.7l0-9.2h-23v-2.9h0v-23c0-1.6-1.2-2.9-2.9-2.9s-2.9,1.2-2.9,2.9v37.5H60v-11.5h-2.8
				c-1.6,0-2.9,1.2-2.9,2.9l-0.1,6.1C54.3,1123.3,63.3,1132.3,74.5,1132.3z M88.9,1097.6v-40.3H19.6v46.1h29.5
				c1.2-3.3,4.4-5.7,8.1-5.7H60v-20.2c0-4.7,3.9-8.7,8.7-8.7s8.7,3.9,8.7,8.7v20.1H88.9z"/>
			<path class="st2" d="M94.6,1112.6c0,10.6-9,19.7-20.2,19.7c-11.2,0-20.2-9-20.2-19.8l0.1-6.1c0-1.7,1.2-2.9,2.9-2.9H60v11.5h5.8
				v-37.5c0-1.6,1.2-2.9,2.9-2.9s2.9,1.2,2.9,2.9v23h0v2.9h23L94.6,1112.6z"/>
			<path class="st1" d="M88.9,1057.3v40.3H77.3v-20.1c0-4.7-3.9-8.7-8.7-8.7s-8.7,3.9-8.7,8.7v20.2h-2.8c-3.7,0-6.9,2.4-8.1,5.7
				H19.6v-46.1H88.9z"/>
		</g>
		<g>
		</g>
	</g>
</g>
<g id="XMLID_2_">
	<g>
		<polygon points="57.1,37 40.2,53.9 30.2,43.9 34.1,40.1 40.2,46.3 53.3,33.2 		"/>
	</g>
	<g>
	</g>
</g>
</svg>
