<?xml version="1.0" encoding="utf-8"?>
<!-- Generator: Adobe Illustrator 21.1.0, SVG Export Plug-In . SVG Version: 6.00 Build 0)  -->
<svg version="1.1" id="Capa_1" xmlns="http://www.w3.org/2000/svg" xmlns:xlink="http://www.w3.org/1999/xlink" x="0px" y="0px"
	 viewBox="0 0 279 147.2" style="enable-background:new 0 0 279 147.2;" xml:space="preserve">
<style type="text/css">
	.st0{fill:#BDC738;}
	.st1{fill:#A3A319;}
	.st2{fill:#373D90;}
	.st3{fill:#FFFFFF;}
</style>
<path class="st0" d="M114.3,9.8L23.6,67.9c-4,2.6-4,8.4,0,11l90.7,58.1c2.1,1.4,4.9,1.4,7,0l90.7-58.1c4-2.6,4-8.4,0-11L121.4,9.8
	C119.2,8.4,116.5,8.4,114.3,9.8z"/>
<path class="st1" d="M84.5,41.3L38.7,70.6c-2,1.3-2,4.2,0,5.5l45.7,29.3c1.1,0.7,2.5,0.7,3.5,0l45.7-29.3c2-1.3,2-4.2,0-5.5L88,41.3
	C86.9,40.6,85.6,40.6,84.5,41.3z"/>
<path class="st0" d="M184.8,38.2l-50.2,32.1c-2.2,1.4-2.2,4.7,0,6.1l50.2,32.1c1.2,0.8,2.7,0.8,3.9,0l50.2-32.1
	c2.2-1.4,2.2-4.7,0-6.1l-50.2-32.1C187.5,37.5,186,37.5,184.8,38.2z"/>
<circle class="st2" cx="138.1" cy="73.1" r="48.5"/>
<g>
	<path class="st3" d="M114.4,69.1c-0.5,1-1.3,1.7-2.3,2.3c-1,0.5-2.2,0.8-3.6,0.8h-4.9V59.3h4.9c1.4,0,2.6,0.3,3.6,0.8
		c1,0.5,1.8,1.3,2.3,2.3c0.5,1,0.8,2.1,0.8,3.4C115.2,67,114.9,68.1,114.4,69.1z M111,68.4c0.7-0.6,1-1.5,1-2.7c0-1.2-0.3-2.1-1-2.7
		c-0.7-0.6-1.6-1-2.8-1h-1.5v7.4h1.5C109.4,69.4,110.3,69.1,111,68.4z"/>
	<path class="st3" d="M121,61.8v2.7h4.4v2.3H121v2.9h4.9v2.5h-8V59.3h8v2.5H121z"/>
	<path class="st3" d="M138.5,60.5c1.1,0.9,1.8,2,2.1,3.5h-3.3c-0.2-0.6-0.6-1.1-1.1-1.4c-0.5-0.3-1.1-0.5-1.8-0.5
		c-0.9,0-1.6,0.3-2.2,1c-0.6,0.7-0.8,1.6-0.8,2.7s0.3,2,0.8,2.7c0.6,0.7,1.3,1,2.2,1c0.7,0,1.3-0.2,1.8-0.5c0.5-0.3,0.9-0.8,1.1-1.4
		h3.3c-0.3,1.5-1,2.6-2.1,3.5c-1.1,0.9-2.4,1.3-4.1,1.3c-1.3,0-2.3-0.3-3.3-0.8c-0.9-0.6-1.7-1.3-2.2-2.3c-0.5-1-0.8-2.1-0.8-3.4
		c0-1.3,0.3-2.4,0.8-3.4c0.5-1,1.2-1.8,2.2-2.3c0.9-0.6,2-0.8,3.3-0.8C136.1,59.2,137.4,59.6,138.5,60.5z"/>
	<path class="st3" d="M146.4,59.3v12.9h-3.1V59.3H146.4z"/>
	<path class="st3" d="M160.2,69.1c-0.5,1-1.3,1.7-2.3,2.3c-1,0.5-2.2,0.8-3.6,0.8h-4.9V59.3h4.9c1.4,0,2.6,0.3,3.6,0.8
		c1,0.5,1.8,1.3,2.3,2.3c0.5,1,0.8,2.1,0.8,3.4C161,67,160.7,68.1,160.2,69.1z M156.8,68.4c0.7-0.6,1-1.5,1-2.7c0-1.2-0.3-2.1-1-2.7
		c-0.7-0.6-1.6-1-2.8-1h-1.5v7.4h1.5C155.2,69.4,156.2,69.1,156.8,68.4z"/>
	<path class="st3" d="M171.7,69.8h-4.8l-0.8,2.3h-3.3l4.7-12.8h3.6l4.7,12.8h-3.3L171.7,69.8z M170.8,67.5l-1.6-4.7l-1.6,4.7H170.8z
		"/>
	<path class="st3" d="M108.3,82.4c-0.2,0.3-0.5,0.6-0.9,0.8c-0.4,0.2-0.8,0.3-1.4,0.3c-0.8,0-1.5-0.2-2-0.6
		c-0.5-0.4-0.8-0.9-0.9-1.6h1.9c0,0.3,0.1,0.5,0.3,0.6c0.2,0.2,0.4,0.2,0.6,0.2c0.2,0,0.4-0.1,0.5-0.2c0.1-0.1,0.2-0.3,0.2-0.5
		c0-0.2-0.1-0.3-0.2-0.5c-0.1-0.1-0.3-0.2-0.4-0.3s-0.4-0.2-0.7-0.3c-0.5-0.2-0.8-0.3-1.1-0.5c-0.3-0.1-0.5-0.4-0.7-0.7
		c-0.2-0.3-0.3-0.7-0.3-1.1c0-0.4,0.1-0.8,0.3-1.1c0.2-0.3,0.5-0.6,0.9-0.7c0.4-0.2,0.8-0.2,1.3-0.2c0.8,0,1.4,0.2,1.9,0.6
		c0.5,0.4,0.7,0.9,0.8,1.6h-1.9c0-0.2-0.1-0.4-0.3-0.6c-0.1-0.1-0.3-0.2-0.6-0.2c-0.2,0-0.4,0.1-0.5,0.2c-0.1,0.1-0.2,0.3-0.2,0.5
		c0,0.2,0.1,0.3,0.2,0.4c0.1,0.1,0.3,0.2,0.4,0.3c0.2,0.1,0.4,0.2,0.7,0.3c0.5,0.2,0.8,0.3,1.1,0.5c0.3,0.2,0.5,0.4,0.8,0.7
		c0.2,0.3,0.3,0.7,0.3,1.1C108.6,81.7,108.5,82,108.3,82.4z"/>
	<path class="st3" d="M112.6,77.5V79h2.4v1.3h-2.4v1.6h2.7v1.4h-4.5v-7.2h4.5v1.4H112.6z"/>
	<path class="st3" d="M119.6,76.1v4.2c0,0.5,0.1,0.8,0.3,1.1c0.2,0.3,0.5,0.4,0.9,0.4c0.4,0,0.7-0.1,0.9-0.4
		c0.2-0.3,0.3-0.6,0.3-1.1v-4.2h1.7v4.2c0,0.7-0.1,1.3-0.4,1.7c-0.3,0.5-0.6,0.8-1.1,1c-0.5,0.2-1,0.4-1.6,0.4s-1.1-0.1-1.5-0.3
		c-0.4-0.2-0.8-0.6-1-1c-0.3-0.5-0.4-1-0.4-1.7v-4.2H119.6z"/>
	<path class="st3" d="M130.1,76.2L133,85l2.9-8.8h3l-4.1,11.7h-3.7l-4.1-11.7H130.1z"/>
	<path class="st3" d="M149.4,76.8c0.9,0.5,1.6,1.2,2.1,2.1c0.5,0.9,0.8,1.9,0.8,3.1c0,1.2-0.3,2.2-0.8,3.1c-0.5,0.9-1.2,1.6-2.1,2.2
		c-0.9,0.5-1.9,0.8-3,0.8c-1.1,0-2.1-0.3-3-0.8c-0.9-0.5-1.6-1.2-2.1-2.2s-0.8-2-0.8-3.1c0-1.2,0.3-2.2,0.8-3.1s1.2-1.6,2.1-2.1
		c0.9-0.5,1.9-0.8,3-0.8C147.5,76,148.5,76.2,149.4,76.8z M144.2,79.5c-0.5,0.6-0.8,1.4-0.8,2.5c0,1,0.3,1.9,0.8,2.5
		c0.5,0.6,1.3,0.9,2.2,0.9c0.9,0,1.7-0.3,2.2-0.9c0.6-0.6,0.8-1.4,0.8-2.5c0-1-0.3-1.9-0.8-2.5c-0.5-0.6-1.3-0.9-2.2-0.9
		C145.5,78.6,144.8,78.9,144.2,79.5z"/>
	<path class="st3" d="M162.7,76.2v2.3h-3.2v9.5h-2.9v-9.5h-3.2v-2.3H162.7z"/>
	<path class="st1" d="M172.9,76.8c0.9,0.5,1.6,1.2,2.1,2.1s0.8,1.9,0.8,3.1c0,1.2-0.3,2.2-0.8,3.1c-0.5,0.9-1.2,1.6-2.1,2.2
		c-0.9,0.5-1.9,0.8-3,0.8c-1.1,0-2.1-0.3-3-0.8c-0.9-0.5-1.6-1.2-2.1-2.2s-0.8-2-0.8-3.1c0-1.2,0.3-2.2,0.8-3.1s1.2-1.6,2.1-2.1
		c0.9-0.5,1.9-0.8,3-0.8C170.9,76,171.9,76.2,172.9,76.8z"/>
</g>
<rect x="102.9" y="86.1" class="st0" width="21" height="1.9"/>
<path class="st0" d="M167.6,79.5c-0.5,0.6-0.8,1.4-0.8,2.5c0,1,0.3,1.9,0.8,2.5c0.5,0.6,1.3,0.9,2.2,0.9c0.9,0,1.7-0.3,2.2-0.9
	c0.6-0.6,0.8-1.4,0.8-2.5c0-1-0.3-1.9-0.8-2.5c-0.5-0.6-1.3-0.9-2.2-0.9C168.9,78.6,168.2,78.9,167.6,79.5z"/>
</svg>
