<?xml version="1.0" encoding="utf-8"?>
<!-- Generator: Adobe Illustrator 21.1.0, SVG Export Plug-In . SVG Version: 6.00 Build 0)  -->
<svg version="1.1" id="Capa_1" xmlns="http://www.w3.org/2000/svg" xmlns:xlink="http://www.w3.org/1999/xlink" x="0px" y="0px"
	 viewBox="0 0 196.5 85.9" style="enable-background:new 0 0 196.5 85.9;" xml:space="preserve">
<style type="text/css">
	.st0{fill:#282828;}
	.st1{fill:#BDC738;}
	.st2{fill:#FFFFFF;}
</style>
<g>
	<g>
		<path class="st0" d="M90.1,22.7c1.5,0,2.7,0.5,3.8,1.4c1,0.9,1.5,2,1.5,3.2v11.7c0,1.3-0.5,2.4-1.6,3.3c-1.1,0.9-2.4,1.3-3.9,1.3
			h-0.1h-5.4V22.7h5.5H90.1z M88.1,25.6v15h1.8c0.5,0,0.9-0.2,1.3-0.5c0.4-0.3,0.5-0.7,0.5-1.2V27.3c0-0.5-0.2-0.9-0.5-1.2
			c-0.4-0.3-0.8-0.5-1.3-0.5H88.1z M90.1,22.7c-0.1,0-0.1,0-0.2,0H90.1z"/>
		<path class="st0" d="M107.8,40.6v2.9h-5.5h-3.7v-2.9v-15v-2.9h3.7h3.7v2.9h-3.7v2.9h5.5v2.9h-5.5v9.2H107.8z"/>
		<path class="st0" d="M109.7,26.9c0-1.3,0.5-2.4,1.6-3.3c1.1-0.9,2.4-1.3,3.9-1.3c1.5,0,2.8,0.4,3.9,1.3c1.1,0.9,1.6,2,1.6,3.3v1.6
			H117v-1.6c0-0.5-0.2-0.9-0.5-1.2c-0.4-0.3-0.8-0.5-1.3-0.5c-0.5,0-0.9,0.2-1.3,0.5c-0.4,0.3-0.5,0.7-0.5,1.2v12.5
			c0,0.5,0.2,0.9,0.5,1.2c0.4,0.3,0.8,0.5,1.3,0.5c0.5,0,0.9-0.2,1.3-0.5c0.4-0.3,0.5-0.7,0.5-1.2v-1.6h3.7v1.6
			c0,1.3-0.5,2.4-1.6,3.3c-1.1,0.9-2.4,1.3-3.9,1.3c-1.5,0-2.8-0.4-3.9-1.3c-1.1-0.9-1.6-2-1.6-3.3V26.9z"/>
		<path class="st0" d="M123.9,22.7h3.7v20.9h-3.7V22.7z"/>
		<path class="st0" d="M136.4,22.7c1.5,0,2.7,0.5,3.8,1.4c1,0.9,1.5,2,1.5,3.2v11.7c0,1.3-0.5,2.4-1.6,3.3c-1.1,0.9-2.4,1.3-3.9,1.3
			h-0.1h-5.4V22.7h5.5H136.4z M134.5,25.6v15h1.8c0.5,0,0.9-0.2,1.3-0.5c0.4-0.3,0.5-0.7,0.5-1.2V27.3c0-0.5-0.2-0.9-0.5-1.2
			c-0.4-0.3-0.8-0.5-1.3-0.5H134.5z M136.5,22.7c-0.1,0-0.1,0-0.2,0H136.5z"/>
		<path class="st0" d="M144.2,26.9c0-1.3,0.5-2.4,1.6-3.3c1.1-0.9,2.4-1.3,3.9-1.3c1.5,0,2.8,0.4,3.9,1.3c1.1,0.9,1.6,2,1.6,3.3
			v30.6h-3.7V40.6h-3.6v2.9h-3.7V26.9z M151.5,37.7v-4.9v-6c0-0.5-0.2-0.9-0.5-1.2c-0.4-0.3-0.8-0.5-1.3-0.5c-0.5,0-0.9,0.2-1.3,0.5
			c-0.4,0.3-0.5,0.7-0.5,1.2v6v4.9H151.5z"/>
		<g>
			<path class="st0" d="M87.3,50.5c0.8,0,1.5,0.2,2,0.7c0.6,0.5,0.8,1,0.8,1.7v2.4c0,0.7-0.3,1.2-0.8,1.7c-0.6,0.5-1.2,0.7-2,0.7
				c-0.8,0-1.5-0.2-2-0.7c-0.6-0.5-0.8-1-0.8-1.7v-0.9h1.9v0.9c0,0.2,0.1,0.4,0.3,0.6c0.2,0.2,0.4,0.3,0.7,0.3
				c0.3,0,0.5-0.1,0.7-0.3c0.2-0.2,0.3-0.4,0.3-0.6v-2.4c0-0.2-0.1-0.4-0.3-0.6c-0.2-0.2-0.4-0.3-0.7-0.3c-0.8,0-1.5-0.2-2-0.7
				c-0.6-0.5-0.8-1-0.8-1.7v-0.9c0-0.7,0.3-1.2,0.8-1.7c0.6-0.5,1.2-0.7,2-0.7c0.8,0,1.5,0.2,2,0.7c0.6,0.5,0.8,1,0.8,1.7v0.9h-1.9
				v-0.9c0-0.2-0.1-0.4-0.3-0.6c-0.2-0.2-0.4-0.3-0.7-0.3c-0.3,0-0.5,0.1-0.7,0.3c-0.2,0.2-0.3,0.4-0.3,0.6v0.9
				c0,0.2,0.1,0.4,0.3,0.6C86.8,50.4,87,50.5,87.3,50.5z"/>
			<path class="st0" d="M87.3,57.8c-0.8,0-1.5-0.2-2.1-0.7c-0.6-0.5-0.9-1.1-0.9-1.8v-1h2.3v1c0,0.2,0.1,0.3,0.2,0.5
				c0.1,0.1,0.3,0.2,0.5,0.2c0.2,0,0.4-0.1,0.5-0.2c0.1-0.1,0.2-0.3,0.2-0.5v-2.4c0-0.2-0.1-0.3-0.2-0.5c-0.1-0.1-0.3-0.2-0.5-0.2
				c-0.8,0-1.5-0.2-2.1-0.7c-0.6-0.5-0.9-1.1-0.9-1.8v-0.9c0-0.7,0.3-1.3,0.9-1.8c0.6-0.5,1.3-0.7,2.1-0.7c0.8,0,1.5,0.2,2.1,0.7
				c0.6,0.5,0.9,1.1,0.9,1.8v1H88v-1c0-0.2-0.1-0.3-0.2-0.5c-0.1-0.1-0.3-0.2-0.5-0.2c-0.2,0-0.4,0.1-0.5,0.2
				c-0.1,0.1-0.2,0.3-0.2,0.5v0.9c0,0.2,0.1,0.3,0.2,0.5c0.1,0.1,0.3,0.2,0.5,0.2c0.8,0,1.5,0.2,2.1,0.7c0.6,0.5,0.9,1.1,0.9,1.8
				v2.4c0,0.7-0.3,1.3-0.9,1.8C88.8,57.5,88.1,57.8,87.3,57.8z M84.6,54.6v0.7c0,0.6,0.2,1.1,0.8,1.5c0.5,0.4,1.1,0.7,1.9,0.7
				c0.7,0,1.4-0.2,1.9-0.7c0.5-0.4,0.8-0.9,0.8-1.5v-2.4c0-0.6-0.2-1.1-0.8-1.5c-0.5-0.4-1.1-0.7-1.9-0.7c-0.3,0-0.6-0.1-0.8-0.3
				c-0.2-0.2-0.3-0.5-0.3-0.8v-0.9c0-0.3,0.1-0.5,0.3-0.8c0.2-0.2,0.5-0.3,0.8-0.3c0.3,0,0.6,0.1,0.8,0.3c0.2,0.2,0.3,0.5,0.3,0.8
				v0.7h1.5v-0.7c0-0.6-0.2-1.1-0.8-1.5c-0.5-0.4-1.1-0.7-1.9-0.7c-0.7,0-1.4,0.2-1.9,0.7c-0.5,0.4-0.8,0.9-0.8,1.5v0.9
				c0,0.6,0.2,1.1,0.8,1.5c0.5,0.4,1.1,0.7,1.9,0.7c0.3,0,0.6,0.1,0.8,0.3c0.2,0.2,0.3,0.5,0.3,0.8v2.4c0,0.3-0.1,0.5-0.3,0.8
				c-0.2,0.2-0.5,0.3-0.8,0.3c-0.3,0-0.6-0.1-0.8-0.3c-0.2-0.2-0.3-0.5-0.3-0.8v-0.7H84.6z"/>
		</g>
		<g>
			<path class="st0" d="M96.5,55.9v1.5h-2.8h-1.9v-1.5v-7.8v-1.5h1.9h1.9v1.5h-1.9v3.2h2.8v1.5h-2.8v3.1H96.5z"/>
			<path class="st0" d="M96.7,57.6h-5.1V46.4h4.2v1.9h-1.9v2.8h2.8V53h-2.8v2.7h2.8V57.6z M92,57.2h4.3v-1.1h-2.8v-3.5h2.8v-1.1
				h-2.8v-3.6h1.9v-1.1H92V57.2z"/>
		</g>
		<g>
			<path class="st0" d="M98.2,46.6h1.9v8.6c0,0.2,0.1,0.4,0.3,0.6c0.2,0.2,0.4,0.3,0.7,0.3c0.3,0,0.5-0.1,0.7-0.3
				c0.2-0.2,0.3-0.4,0.3-0.6v-8.6h1.9v8.6c0,0.7-0.3,1.2-0.8,1.7c-0.6,0.5-1.2,0.7-2,0.7c-0.8,0-1.5-0.2-2-0.7
				c-0.6-0.5-0.8-1-0.8-1.7V46.6z"/>
			<path class="st0" d="M101,57.8c-0.8,0-1.5-0.2-2.1-0.7c-0.6-0.5-0.9-1.1-0.9-1.8v-8.8h2.3v8.8c0,0.2,0.1,0.3,0.2,0.5
				c0.1,0.1,0.3,0.2,0.5,0.2s0.4-0.1,0.5-0.2c0.1-0.1,0.2-0.3,0.2-0.5v-8.8h2.3v8.8c0,0.7-0.3,1.3-0.9,1.8
				C102.6,57.5,101.9,57.8,101,57.8z M98.4,46.8v8.4c0,0.6,0.2,1.1,0.8,1.5c0.5,0.4,1.1,0.7,1.9,0.7c0.7,0,1.4-0.2,1.9-0.7
				c0.5-0.4,0.8-0.9,0.8-1.5v-8.4h-1.5v8.4c0,0.3-0.1,0.5-0.3,0.8c-0.2,0.2-0.5,0.3-0.8,0.3s-0.6-0.1-0.8-0.3
				c-0.2-0.2-0.3-0.5-0.3-0.8v-8.4H98.4z"/>
		</g>
		<path class="st0" d="M118.1,46.3l-5.8,17.3l-5.8-17.3h3.1l2.7,8.1l2.7-8.1H118.1z"/>
		<path class="st0" d="M118.9,49.7c0-1,0.4-1.9,1.3-2.6c0.9-0.7,1.9-1.1,3.2-1.1c1.2,0,2.3,0.4,3.2,1.1c0.9,0.7,1.3,1.6,1.3,2.6
			v10.2c0,1-0.4,1.9-1.3,2.6c-0.9,0.7-1.9,1.1-3.2,1.1c-1.2,0-2.3-0.4-3.2-1.1c-0.9-0.7-1.3-1.6-1.3-2.6V49.7z M121.9,49.7v10.2
			c0,0.4,0.1,0.7,0.4,1c0.3,0.3,0.6,0.4,1,0.4c0.4,0,0.8-0.1,1-0.4c0.3-0.3,0.4-0.6,0.4-1V49.7c0-0.4-0.1-0.7-0.4-1
			c-0.3-0.3-0.6-0.4-1-0.4c-0.4,0-0.8,0.1-1,0.4C122.1,49,121.9,49.3,121.9,49.7z"/>
		<path class="st0" d="M136.8,46.3v2.4h-2.2v14.6h-3V48.7h-2.2v-2.4H136.8z"/>
		<path class="st0" d="M138.8,49.7c0-1,0.4-1.9,1.3-2.6c0.9-0.7,1.9-1.1,3.2-1.1s2.3,0.4,3.2,1.1c0.9,0.7,1.3,1.6,1.3,2.6v10.2
			c0,1-0.4,1.9-1.3,2.6c-0.9,0.7-1.9,1.1-3.2,1.1s-2.3-0.4-3.2-1.1c-0.9-0.7-1.3-1.6-1.3-2.6V49.7z M141.8,49.7v10.2
			c0,0.4,0.1,0.7,0.4,1c0.3,0.3,0.6,0.4,1,0.4c0.4,0,0.8-0.1,1-0.4c0.3-0.3,0.4-0.6,0.4-1V49.7c0-0.4-0.1-0.7-0.4-1
			c-0.3-0.3-0.6-0.4-1-0.4c-0.4,0-0.8,0.1-1,0.4C141.9,49,141.8,49.3,141.8,49.7z"/>
	</g>
	<rect x="84.5" y="60.1" class="st1" width="19.9" height="2.7"/>
	<rect x="151.5" y="60.1" class="st1" width="3.7" height="2.7"/>
	<g transform="translate(0,-1036.3622)">
		<g id="XMLID_1_">
			<g>
				<path class="st0" d="M79.9,1087.2c0,6.5-5.5,11.9-12.2,11.9c-6.7,0-12.2-5.4-12.2-12l0-1.5H39.4v-27h37.8v21.6h2.7L79.9,1087.2z
					 M67.7,1096.4c5.2,0,9.5-4.2,9.5-9.2l0-4.3H66.4v-1.3h0v-10.8c0-0.8-0.6-1.4-1.4-1.4c-0.8,0-1.3,0.6-1.3,1.4v17.5H61v-5.4h-1.3
					c-0.8,0-1.3,0.6-1.4,1.4l0,2.8C58.3,1092.2,62.5,1096.4,67.7,1096.4z M74.5,1080.2v-18.9H42.1v21.6h13.8c0.6-1.6,2-2.7,3.8-2.7
					H61v-9.4c0-2.2,1.8-4.1,4.1-4.1c2.2,0,4.1,1.8,4.1,4.1v9.4H74.5z"/>
				<path class="st2" d="M77.2,1087.2c0,5-4.2,9.2-9.5,9.2s-9.5-4.2-9.5-9.3l0-2.8c0-0.8,0.6-1.4,1.4-1.4H61v5.4h2.7v-17.5
					c0-0.8,0.6-1.4,1.3-1.4c0.8,0,1.4,0.6,1.4,1.4v10.8h0v1.3h10.8L77.2,1087.2z"/>
				<path class="st1" d="M74.5,1061.3v18.9h-5.4v-9.4c0-2.2-1.8-4.1-4.1-4.1c-2.2,0-4.1,1.8-4.1,4.1v9.4h-1.3
					c-1.7,0-3.2,1.1-3.8,2.7H42.1v-21.6H74.5z"/>
			</g>
			<g>
			</g>
		</g>
	</g>
	<g id="XMLID_2_">
		<g>
			<polygon class="st0" points="59.6,32.5 51.7,40.4 47,35.7 48.8,33.9 51.7,36.8 57.8,30.7 			"/>
		</g>
		<g>
		</g>
	</g>
</g>
</svg>
