<?xml version="1.0" encoding="utf-8"?>
<!-- Generator: Adobe Illustrator 21.1.0, SVG Export Plug-In . SVG Version: 6.00 Build 0)  -->
<svg version="1.1" id="Capa_1" xmlns="http://www.w3.org/2000/svg" xmlns:xlink="http://www.w3.org/1999/xlink" x="0px" y="0px"
	 viewBox="0 0 196.5 85.9" style="enable-background:new 0 0 196.5 85.9;" xml:space="preserve">
<style type="text/css">
	.st0{fill:#FFFFFF;}
	.st1{fill:#BDC738;}
</style>
<g>
	<g>
		<path class="st0" d="M63.1,18.9c1.8,0.1,3.2,0.6,4.5,1.7c1.2,1.1,1.8,2.3,1.8,3.8v13.8c0,1.5-0.6,2.8-1.9,3.9
			c-1.3,1.1-2.8,1.6-4.6,1.6h-0.1h-6.4V18.9H63H63.1z M60.8,22.4v17.8H63c0.6,0,1.1-0.2,1.5-0.6c0.4-0.4,0.6-0.9,0.6-1.4V24.4
			c0-0.5-0.2-1-0.6-1.4c-0.4-0.4-0.9-0.6-1.5-0.6H60.8z M63.2,18.9c-0.1,0-0.2,0-0.2,0H63.2z"/>
		<path class="st0" d="M84.1,40.2v3.5h-6.5h-4.3v-3.5V22.4v-3.5h4.3H82v3.5h-4.3v3.4h6.5v3.5h-6.5v10.9H84.1z"/>
		<path class="st0" d="M86.4,23.9c0-1.5,0.6-2.8,1.9-3.9c1.3-1.1,2.8-1.6,4.6-1.6c1.8,0,3.3,0.5,4.6,1.6c1.3,1.1,1.9,2.3,1.9,3.9v2
			H95v-2c0-0.5-0.2-1-0.6-1.4c-0.4-0.4-0.9-0.6-1.5-0.6c-0.6,0-1.1,0.2-1.5,0.6c-0.4,0.4-0.6,0.9-0.6,1.4v14.8c0,0.5,0.2,1,0.6,1.4
			c0.4,0.4,0.9,0.6,1.5,0.6c0.6,0,1.1-0.2,1.5-0.6c0.4-0.4,0.6-0.9,0.6-1.4v-2h4.3v2c0,1.5-0.6,2.8-1.9,3.9
			c-1.3,1.1-2.8,1.6-4.6,1.6c-1.8,0-3.3-0.5-4.6-1.6c-1.3-1.1-1.9-2.3-1.9-3.9V23.9z"/>
		<path class="st0" d="M103.2,18.9h4.3v24.7h-4.3V18.9z"/>
		<path class="st0" d="M118.1,18.9c1.8,0.1,3.2,0.6,4.5,1.7c1.2,1.1,1.8,2.3,1.8,3.8v13.8c0,1.5-0.6,2.8-1.9,3.9
			c-1.3,1.1-2.8,1.6-4.6,1.6h-0.1h-6.4V18.9h6.5H118.1z M115.8,22.4v17.8h2.2c0.6,0,1.1-0.2,1.5-0.6c0.4-0.4,0.6-0.9,0.6-1.4V24.4
			c0-0.5-0.2-1-0.6-1.4c-0.4-0.4-0.9-0.6-1.5-0.6H115.8z M118.1,18.9c-0.1,0-0.2,0-0.2,0H118.1z"/>
		<path class="st0" d="M127.3,23.9c0-1.5,0.6-2.8,1.9-3.9c1.3-1.1,2.8-1.6,4.6-1.6c1.8,0,3.3,0.5,4.6,1.6c1.3,1.1,1.9,2.3,1.9,3.9
			v36.3h-4.3v-20h-4.3v3.5h-4.3V23.9z M135.9,36.7V31v-7.1c0-0.5-0.2-1-0.6-1.4s-0.9-0.6-1.5-0.6c-0.6,0-1.1,0.2-1.5,0.6
			s-0.6,0.9-0.6,1.4V31v5.8H135.9z"/>
		<g>
			<path class="st0" d="M59.8,51.9c0.9,0,1.7,0.3,2.4,0.8c0.7,0.6,1,1.2,1,2v2.8c0,0.8-0.3,1.4-1,2c-0.7,0.5-1.4,0.8-2.4,0.8
				c-0.9,0-1.7-0.3-2.4-0.8c-0.7-0.5-1-1.2-1-2v-1h2.2v1c0,0.3,0.1,0.5,0.3,0.7c0.2,0.2,0.5,0.3,0.8,0.3c0.3,0,0.6-0.1,0.8-0.3
				c0.2-0.2,0.3-0.4,0.3-0.7v-2.8c0-0.3-0.1-0.5-0.3-0.7c-0.2-0.2-0.5-0.3-0.8-0.3c-0.9,0-1.7-0.3-2.4-0.8c-0.7-0.5-1-1.2-1-2v-1
				c0-0.8,0.3-1.4,1-2c0.7-0.5,1.4-0.8,2.4-0.8c0.9,0,1.7,0.3,2.4,0.8c0.7,0.5,1,1.2,1,2v1h-2.2v-1c0-0.3-0.1-0.5-0.3-0.7
				s-0.5-0.3-0.8-0.3c-0.3,0-0.6,0.1-0.8,0.3c-0.2,0.2-0.3,0.4-0.3,0.7v1c0,0.3,0.1,0.5,0.3,0.7C59.2,51.8,59.5,51.9,59.8,51.9z"/>
			<path class="st0" d="M59.8,60.5c-1,0-1.8-0.3-2.5-0.9c-0.7-0.6-1.1-1.3-1.1-2.2v-1.2h2.7v1.2c0,0.2,0.1,0.4,0.3,0.6
				c0.2,0.2,0.4,0.2,0.6,0.2c0.3,0,0.5-0.1,0.6-0.2c0.2-0.2,0.3-0.3,0.3-0.6v-2.8c0-0.2-0.1-0.4-0.3-0.6c-0.2-0.2-0.4-0.2-0.6-0.2
				c-1,0-1.8-0.3-2.5-0.9c-0.7-0.6-1.1-1.3-1.1-2.2v-1c0-0.8,0.4-1.6,1.1-2.2c0.7-0.6,1.5-0.9,2.5-0.9c1,0,1.8,0.3,2.5,0.9
				c0.7,0.6,1.1,1.3,1.1,2.2v1.2h-2.7v-1.2c0-0.2-0.1-0.4-0.3-0.6c-0.2-0.2-0.4-0.2-0.6-0.2c-0.3,0-0.5,0.1-0.6,0.2
				c-0.2,0.2-0.3,0.3-0.3,0.6v1c0,0.2,0.1,0.4,0.3,0.6c0.2,0.2,0.4,0.2,0.6,0.2c1,0,1.8,0.3,2.5,0.9c0.7,0.6,1.1,1.3,1.1,2.2v2.8
				c0,0.8-0.4,1.6-1.1,2.2C61.7,60.2,60.8,60.5,59.8,60.5z M56.7,56.7v0.8c0,0.7,0.3,1.3,0.9,1.8c0.6,0.5,1.4,0.8,2.2,0.8
				c0.9,0,1.6-0.3,2.2-0.8c0.6-0.5,0.9-1.1,0.9-1.8v-2.8c0-0.7-0.3-1.3-0.9-1.8c-0.6-0.5-1.4-0.8-2.2-0.8c-0.4,0-0.7-0.1-0.9-0.4
				c-0.3-0.2-0.4-0.5-0.4-0.9v-1c0-0.3,0.1-0.6,0.4-0.9c0.3-0.2,0.6-0.4,0.9-0.4c0.4,0,0.7,0.1,0.9,0.4c0.3,0.2,0.4,0.5,0.4,0.9v0.8
				H63v-0.8c0-0.7-0.3-1.3-0.9-1.8c-0.6-0.5-1.4-0.8-2.2-0.8c-0.9,0-1.6,0.3-2.2,0.8c-0.6,0.5-0.9,1.1-0.9,1.8v1
				c0,0.7,0.3,1.3,0.9,1.8c0.6,0.5,1.4,0.8,2.2,0.8c0.4,0,0.7,0.1,0.9,0.4c0.3,0.2,0.4,0.5,0.4,0.9v2.8c0,0.3-0.1,0.6-0.4,0.9
				c-0.3,0.2-0.6,0.4-0.9,0.4c-0.4,0-0.7-0.1-0.9-0.4c-0.3-0.2-0.4-0.5-0.4-0.9v-0.8H56.7z"/>
		</g>
		<g>
			<path class="st0" d="M70.8,58.3v1.8h-3.4h-2.2v-1.8v-9.2v-1.8h2.2h2.2v1.8h-2.2v3.8h3.4v1.8h-3.4v3.7H70.8z"/>
			<path class="st0" d="M71,60.3h-6.1V47h4.9v2.3h-2.2v3.3H71v2.3h-3.4V58H71V60.3z M65.4,59.8h5.1v-1.3h-3.4v-4.1h3.4V53h-3.4v-4.2
				h2.2v-1.3h-4V59.8z"/>
		</g>
		<g>
			<path class="st0" d="M72.8,47.3H75v10.2c0,0.3,0.1,0.5,0.3,0.7c0.2,0.2,0.5,0.3,0.8,0.3c0.3,0,0.6-0.1,0.8-0.3
				c0.2-0.2,0.3-0.4,0.3-0.7V47.3h2.2v10.2c0,0.8-0.3,1.4-1,2c-0.7,0.5-1.4,0.8-2.4,0.8s-1.7-0.3-2.4-0.8c-0.7-0.5-1-1.2-1-2V47.3z"
				/>
			<path class="st0" d="M76.1,60.5c-1,0-1.8-0.3-2.5-0.9c-0.7-0.6-1.1-1.3-1.1-2.2V47h2.7v10.5c0,0.2,0.1,0.4,0.3,0.6
				c0.2,0.2,0.4,0.2,0.6,0.2c0.3,0,0.5-0.1,0.6-0.2c0.2-0.2,0.3-0.3,0.3-0.6V47h2.7v10.5c0,0.8-0.4,1.6-1.1,2.2
				C78,60.2,77.1,60.5,76.1,60.5z M73,47.5v10c0,0.7,0.3,1.3,0.9,1.8c0.6,0.5,1.4,0.8,2.2,0.8c0.9,0,1.6-0.3,2.2-0.8
				c0.6-0.5,0.9-1.1,0.9-1.8v-10h-1.8v10c0,0.3-0.1,0.6-0.4,0.9c-0.3,0.2-0.6,0.4-0.9,0.4c-0.4,0-0.7-0.1-0.9-0.4
				c-0.3-0.2-0.4-0.5-0.4-0.9v-10H73z"/>
		</g>
		<path class="st0" d="M96.3,46.9l-6.9,20.5l-6.9-20.5h3.7l3.2,9.6l3.2-9.6H96.3z"/>
		<path class="st0" d="M97.4,51c0-1.2,0.5-2.3,1.5-3.1c1-0.9,2.3-1.3,3.7-1.3c1.5,0,2.7,0.4,3.7,1.3c1,0.9,1.5,1.9,1.5,3.1v12
			c0,1.2-0.5,2.3-1.5,3.1c-1,0.9-2.3,1.3-3.7,1.3c-1.5,0-2.7-0.4-3.7-1.3c-1-0.9-1.5-1.9-1.5-3.1V51z M100.9,51v12
			c0,0.4,0.2,0.8,0.5,1.1c0.3,0.3,0.8,0.5,1.2,0.5c0.5,0,0.9-0.2,1.2-0.5c0.3-0.3,0.5-0.7,0.5-1.1V51c0-0.4-0.2-0.8-0.5-1.1
			c-0.3-0.3-0.8-0.5-1.2-0.5c-0.5,0-0.9,0.2-1.2,0.5S100.9,50.5,100.9,51z"/>
		<path class="st0" d="M118.5,46.9v2.8h-2.6V67h-3.5V49.8h-2.6v-2.8H118.5z"/>
		<path class="st0" d="M120.9,51c0-1.2,0.5-2.3,1.5-3.1c1-0.9,2.3-1.3,3.7-1.3s2.7,0.4,3.7,1.3c1,0.9,1.5,1.9,1.5,3.1v12
			c0,1.2-0.5,2.3-1.5,3.1c-1,0.9-2.3,1.3-3.7,1.3s-2.7-0.4-3.7-1.3c-1-0.9-1.5-1.9-1.5-3.1V51z M124.4,51v12c0,0.4,0.2,0.8,0.5,1.1
			c0.3,0.3,0.8,0.5,1.2,0.5c0.5,0,0.9-0.2,1.2-0.5c0.3-0.3,0.5-0.7,0.5-1.1V51c0-0.4-0.2-0.8-0.5-1.1c-0.3-0.3-0.8-0.5-1.2-0.5
			c-0.5,0-0.9,0.2-1.2,0.5S124.4,50.5,124.4,51z"/>
	</g>
	<rect x="56.5" y="63.3" class="st1" width="23.6" height="3.2"/>
	<rect x="135.9" y="63.3" class="st1" width="4.3" height="3.2"/>
</g>
</svg>
