<?xml version="1.0" encoding="utf-8"?>
<!-- Generator: Adobe Illustrator 22.0.1, SVG Export Plug-In . SVG Version: 6.00 Build 0)  -->
<svg version="1.1" id="Capa_1" xmlns="http://www.w3.org/2000/svg" xmlns:xlink="http://www.w3.org/1999/xlink" x="0px" y="0px"
	 viewBox="0 0 500 199" style="enable-background:new 0 0 500 199;" xml:space="preserve">
<style type="text/css">
	.st0{fill:#211915;}
	.st1{fill:#BFC84F;}
	.st2{fill:#FFFFFF;}
</style>
<g>
	<path class="st0" d="M220.8,18.7c6,0.2,11.2,2.1,15.4,5.7s6.3,8,6.3,13V85c0,5.2-2.2,9.6-6.5,13.3c-4.3,3.7-9.6,5.5-15.8,5.5h-0.4
		h-21.9V18.7h22.3H220.8z M212.7,30.6v61.2h7.4c2.1,0,3.8-0.7,5.3-2c1.4-1.3,2.2-2.9,2.2-4.8V37.4c0-1.9-0.7-3.5-2.2-4.8
		c-1.4-1.3-3.2-2-5.3-2H212.7z M220.9,18.7c-0.3,0-0.6,0-0.8,0H220.9z"/>
	<path class="st0" d="M293,91.8v11.9h-22.3h-14.9V91.8V30.6V18.7h14.9h14.9v11.9h-14.9v11.8H293v11.9h-22.3v37.4H293z"/>
	<path class="st0" d="M300.7,35.7c0-5.2,2.2-9.6,6.5-13.3c4.3-3.7,9.6-5.5,15.8-5.5s11.5,1.8,15.8,5.5c4.3,3.7,6.5,8.1,6.5,13.3v6.7
		h-14.9v-6.7c0-1.9-0.7-3.5-2.2-4.8c-1.4-1.3-3.2-2-5.3-2c-2.1,0-3.8,0.7-5.3,2c-1.4,1.3-2.2,2.9-2.2,4.8v50.9
		c0,1.9,0.7,3.5,2.2,4.8c1.4,1.3,3.2,2,5.3,2c2.1,0,3.8-0.7,5.3-2c1.4-1.3,2.2-2.9,2.2-4.8V80h14.9v6.7c0,5.2-2.2,9.6-6.5,13.3
		c-4.3,3.7-9.6,5.5-15.8,5.5s-11.5-1.8-15.8-5.5c-4.3-3.7-6.5-8.1-6.5-13.3V35.7z"/>
	<path class="st0" d="M358.6,18.7h14.9v85.1h-14.9V18.7z"/>
	<path class="st0" d="M409.8,18.7c6,0.2,11.2,2.1,15.4,5.7c4.2,3.6,6.3,8,6.3,13V85c0,5.2-2.2,9.6-6.5,13.3
		c-4.3,3.7-9.6,5.5-15.8,5.5h-0.4h-21.9V18.7h22.3H409.8z M401.7,30.6v61.2h7.4c2.1,0,3.8-0.7,5.3-2c1.4-1.3,2.2-2.9,2.2-4.8V37.4
		c0-1.9-0.7-3.5-2.2-4.8c-1.4-1.3-3.2-2-5.3-2H401.7z M409.9,18.7c-0.3,0-0.6,0-0.8,0H409.9z"/>
	<path class="st0" d="M441.4,35.7c0-5.2,2.2-9.6,6.5-13.3c4.3-3.7,9.6-5.5,15.8-5.5c6.2,0,11.5,1.8,15.8,5.5
		c4.3,3.7,6.5,8.1,6.5,13.3v125h-14.9V91.8h-14.8v11.9h-14.9V35.7z M471.2,80V60.2V35.7c0-1.9-0.7-3.5-2.2-4.8c-1.4-1.3-3.2-2-5.3-2
		c-2.1,0-3.8,0.7-5.3,2c-1.4,1.3-2.2,2.9-2.2,4.8v24.4V80H471.2z"/>
	<g>
		<path class="st0" d="M209.3,132.1c3.2,0,5.9,0.9,8.2,2.8c2.2,1.9,3.4,4.2,3.4,6.9v9.7c0,2.7-1.1,5-3.4,6.9c-2.3,1.9-5,2.8-8.2,2.8
			s-5.9-0.9-8.2-2.8c-2.3-1.9-3.4-4.2-3.4-6.9V148h7.7v3.5c0,1,0.4,1.8,1.1,2.5c0.7,0.7,1.6,1,2.7,1c1.1,0,2-0.3,2.7-1
			c0.7-0.7,1.1-1.5,1.1-2.5v-9.7c0-1-0.4-1.8-1.1-2.5c-0.7-0.7-1.6-1-2.7-1c-3.2,0-5.9-0.9-8.2-2.8c-2.3-1.9-3.4-4.2-3.4-6.9v-3.5
			c0-2.7,1.1-5,3.4-6.9c2.2-1.9,5-2.8,8.2-2.8s5.9,0.9,8.2,2.8c2.2,1.9,3.4,4.2,3.4,6.9v3.5h-7.7v-3.5c0-1-0.4-1.8-1.1-2.5
			c-0.7-0.7-1.6-1-2.7-1c-1.1,0-2,0.3-2.7,1c-0.7,0.7-1.1,1.5-1.1,2.5v3.5c0,1,0.4,1.8,1.1,2.5C207.4,131.7,208.3,132.1,209.3,132.1
			z"/>
		<path class="st0" d="M209.3,161.9c-3.4,0-6.3-1-8.7-3c-2.4-2-3.7-4.5-3.7-7.5v-4.3h9.3v4.3c0,0.8,0.3,1.4,0.9,1.9
			c0.6,0.6,1.3,0.8,2.2,0.8c0.9,0,1.6-0.3,2.2-0.8c0.6-0.5,0.9-1.2,0.9-1.9v-9.7c0-0.8-0.3-1.4-0.9-1.9c-0.6-0.6-1.3-0.8-2.2-0.8
			c-3.4,0-6.3-1-8.7-3c-2.4-2-3.7-4.5-3.7-7.5v-3.5c0-2.9,1.2-5.4,3.7-7.5c2.4-2,5.3-3,8.7-3c3.4,0,6.3,1,8.7,3
			c2.4,2,3.7,4.6,3.7,7.5v4.3h-9.3v-4.3c0-0.8-0.3-1.4-0.9-1.9c-0.6-0.6-1.3-0.8-2.2-0.8c-0.9,0-1.6,0.3-2.2,0.8
			c-0.6,0.5-0.9,1.2-0.9,1.9v3.5c0,0.8,0.3,1.4,0.9,1.9c0.6,0.6,1.3,0.8,2.2,0.8c3.4,0,6.3,1,8.7,3c2.4,2,3.7,4.6,3.7,7.5v9.7
			c0,2.9-1.2,5.4-3.7,7.5C215.6,160.9,212.7,161.9,209.3,161.9z M198.6,148.7v2.7c0,2.5,1,4.5,3.1,6.3c2.1,1.8,4.7,2.7,7.7,2.7
			c3,0,5.6-0.9,7.7-2.7c2.1-1.8,3.1-3.8,3.1-6.3v-9.7c0-2.5-1-4.5-3.1-6.3c-2.1-1.8-4.7-2.7-7.7-2.7c-1.3,0-2.4-0.4-3.2-1.2
			c-0.9-0.8-1.4-1.9-1.4-3.1v-3.5c0-1.2,0.5-2.2,1.4-3.1c0.9-0.8,2-1.2,3.2-1.2c1.3,0,2.4,0.4,3.2,1.2c0.9,0.8,1.4,1.9,1.4,3.1v2.7
			h6.2v-2.7c0-2.5-1-4.5-3.1-6.3c-2.1-1.8-4.7-2.7-7.7-2.7c-3,0-5.6,0.9-7.7,2.7c-2.1,1.8-3.1,3.8-3.1,6.3v3.5c0,2.5,1,4.5,3.1,6.3
			c2.1,1.8,4.7,2.7,7.7,2.7c1.3,0,2.4,0.4,3.2,1.2c0.9,0.8,1.4,1.9,1.4,3.1v9.7c0,1.2-0.5,2.2-1.4,3.1c-0.9,0.8-2,1.2-3.2,1.2
			c-1.3,0-2.4-0.4-3.2-1.2c-0.9-0.8-1.4-1.9-1.4-3.1v-2.7H198.6z"/>
	</g>
	<g>
		<path class="st0" d="M247,154.1v6.2h-11.6h-7.7v-6.2v-31.7v-6.2h7.7h7.7v6.2h-7.7v12.9H247v6.2h-11.6v12.6H247z"/>
		<path class="st0" d="M247.8,161.1H227v-45.6h17v7.7h-7.7v11.4h11.6v7.7h-11.6v11h11.6V161.1z M228.5,159.5h17.7v-4.6h-11.6v-14.1
			h11.6v-4.6h-11.6v-14.5h7.7V117h-13.9V159.5z"/>
	</g>
	<g>
		<path class="st0" d="M253.9,116.2h7.7v35.2c0,1,0.4,1.8,1.1,2.5c0.7,0.7,1.6,1,2.7,1c1.1,0,2-0.3,2.7-1c0.7-0.7,1.1-1.5,1.1-2.5
			v-35.2h7.7v35.2c0,2.7-1.1,5-3.4,6.9c-2.3,1.9-5,2.8-8.2,2.8c-3.2,0-5.9-0.9-8.2-2.8c-2.3-1.9-3.4-4.2-3.4-6.9V116.2z"/>
		<path class="st0" d="M265.4,161.9c-3.4,0-6.3-1-8.7-3c-2.4-2-3.7-4.5-3.7-7.5v-36h9.3v36c0,0.8,0.3,1.4,0.9,1.9
			c0.6,0.6,1.3,0.8,2.2,0.8c0.9,0,1.6-0.3,2.2-0.8c0.6-0.5,0.9-1.2,0.9-1.9v-36h9.3v36c0,2.9-1.2,5.4-3.7,7.5
			C271.7,160.9,268.8,161.9,265.4,161.9z M254.7,117v34.4c0,2.5,1,4.5,3.1,6.3c2.1,1.8,4.7,2.7,7.7,2.7c3,0,5.6-0.9,7.7-2.7
			c2.1-1.8,3.1-3.8,3.1-6.3V117h-6.2v34.4c0,1.2-0.5,2.2-1.4,3.1c-0.9,0.8-2,1.2-3.2,1.2s-2.4-0.4-3.2-1.2c-0.9-0.8-1.4-1.9-1.4-3.1
			V117H254.7z"/>
	</g>
	<path class="st0" d="M334.8,115.1l-23.6,70.5l-23.6-70.5h12.6l11.1,33.1l11.1-33.1H334.8z"/>
	<path class="st0" d="M338.4,129c0-4.2,1.8-7.8,5.3-10.8c3.5-3,7.8-4.5,12.9-4.5c5,0,9.3,1.5,12.8,4.5c3.5,3,5.3,6.6,5.3,10.8v41.4
		c0,4.2-1.8,7.8-5.3,10.8c-3.5,3-7.8,4.5-12.8,4.5c-5,0-9.3-1.5-12.9-4.5c-3.5-3-5.3-6.6-5.3-10.8V129z M350.6,129v41.4
		c0,1.5,0.6,2.8,1.8,3.9c1.2,1.1,2.6,1.6,4.3,1.6c1.7,0,3.1-0.5,4.3-1.6c1.2-1.1,1.8-2.4,1.8-3.9V129c0-1.5-0.6-2.8-1.8-3.9
		c-1.2-1.1-2.6-1.6-4.3-1.6c-1.7,0-3.1,0.5-4.3,1.6C351.2,126.2,350.6,127.5,350.6,129z"/>
	<path class="st0" d="M411.3,115.1v9.7h-9.1v59.5h-12.1v-59.5H381v-9.7H411.3z"/>
	<path class="st0" d="M419.4,129c0-4.2,1.8-7.8,5.3-10.8c3.5-3,7.8-4.5,12.9-4.5s9.3,1.5,12.9,4.5c3.5,3,5.3,6.6,5.3,10.8v41.4
		c0,4.2-1.8,7.8-5.3,10.8c-3.5,3-7.8,4.5-12.9,4.5s-9.3-1.5-12.9-4.5c-3.5-3-5.3-6.6-5.3-10.8V129z M431.5,129v41.4
		c0,1.5,0.6,2.8,1.8,3.9c1.2,1.1,2.6,1.6,4.3,1.6c1.7,0,3.1-0.5,4.3-1.6c1.2-1.1,1.8-2.4,1.8-3.9V129c0-1.5-0.6-2.8-1.8-3.9
		c-1.2-1.1-2.6-1.6-4.3-1.6c-1.7,0-3.1,0.5-4.3,1.6C432.1,126.2,431.5,127.5,431.5,129z"/>
</g>
<rect x="197.8" y="171.2" class="st1" width="81.1" height="11"/>
<rect x="471.2" y="171.2" class="st1" width="14.9" height="11"/>
<g transform="translate(0,-1036.3622)">
	<g id="XMLID_1_">
		<g>
			<path d="M179.2,1169.9c0,26.5-22.3,48.6-49.6,48.6c-27.3,0-49.6-22.1-49.6-48.9l0.1-6.2H13.9v-110.1h154.3v88.1h11L179.2,1169.9z
				 M129.6,1207.6c21.4,0,38.6-17.3,38.6-37.6l0-17.5h-44v-5.5h0v-44c0-3.1-2.4-5.5-5.5-5.5s-5.5,2.4-5.5,5.5v71.6h-11v-22h-5.4
				c-3.2,0-5.5,2.4-5.5,5.6l-0.2,11.6C91,1190.4,108.2,1207.6,129.6,1207.6z M157.2,1141.4v-77H24.9v88.1h56.4
				c2.3-6.3,8.3-11,15.5-11h5.4V1103c0-9.1,7.5-16.5,16.5-16.5s16.5,7.5,16.5,16.5v38.4H157.2z"/>
			<path class="st2" d="M168.2,1170c0,20.3-17.2,37.6-38.6,37.6c-21.4,0-38.6-17.2-38.6-37.9l0.2-11.6c0-3.2,2.4-5.6,5.5-5.6h5.4v22
				h11V1103c0-3.1,2.4-5.5,5.5-5.5s5.5,2.4,5.5,5.5v44h0v5.5h44L168.2,1170z"/>
			<path class="st1" d="M157.2,1064.4v77h-22V1103c0-9.1-7.5-16.5-16.5-16.5s-16.5,7.5-16.5,16.5v38.5h-5.4c-7.1,0-13.1,4.6-15.5,11
				H24.9v-88.1H157.2z"/>
		</g>
		<g>
		</g>
	</g>
</g>
<g id="XMLID_2_">
	<g>
		<polygon points="96.5,58.7 64.2,91 45.1,71.9 52.5,64.6 64.2,76.3 89.2,51.4 		"/>
	</g>
	<g>
	</g>
</g>
</svg>
