<?xml version="1.0" encoding="utf-8"?>
<!-- Generator: Adobe Illustrator 21.1.0, SVG Export Plug-In . SVG Version: 6.00 Build 0)  -->
<svg version="1.1" id="Capa_1" xmlns="http://www.w3.org/2000/svg" xmlns:xlink="http://www.w3.org/1999/xlink" x="0px" y="0px"
	 viewBox="0 0 196.5 85.9" style="enable-background:new 0 0 196.5 85.9;" xml:space="preserve">
<style type="text/css">
	.st0{fill:#FFFFFF;}
	.st1{fill:#BDC738;}
	.st2{fill:#211915;}
	.st3{fill:#BFC84F;}
</style>
<g>
	<g>
		<path class="st0" d="M63.1-67c1.8,0.1,3.2,0.6,4.5,1.7c1.2,1.1,1.8,2.3,1.8,3.8v13.8c0,1.5-0.6,2.8-1.9,3.9
			c-1.3,1.1-2.8,1.6-4.6,1.6h-0.1h-6.4V-67H63.1L63.1-67z M60.8-63.5v17.8H63c0.6,0,1.1-0.2,1.5-0.6c0.4-0.4,0.6-0.9,0.6-1.4v-13.8
			c0-0.5-0.2-1-0.6-1.4c-0.4-0.4-0.9-0.6-1.5-0.6H60.8z M63.2-67c-0.1,0-0.2,0-0.2,0H63.2z"/>
		<path class="st0" d="M84.1-45.7v3.5h-6.5h-4.3v-3.5v-17.8V-67h4.3H82v3.5h-4.3v3.4h6.5v3.5h-6.5v10.9
			C77.7-45.7,84.1-45.7,84.1-45.7z"/>
		<path class="st0" d="M86.4-62c0-1.5,0.6-2.8,1.9-3.9c1.3-1.1,2.8-1.6,4.6-1.6c1.8,0,3.3,0.5,4.6,1.6c1.3,1.1,1.9,2.3,1.9,3.9v2H95
			v-2c0-0.5-0.2-1-0.6-1.4C94-63.8,93.5-64,92.9-64s-1.1,0.2-1.5,0.6C91-63,90.8-62.5,90.8-62v14.8c0,0.5,0.2,1,0.6,1.4
			s0.9,0.6,1.5,0.6s1.1-0.2,1.5-0.6c0.4-0.4,0.6-0.9,0.6-1.4v-2h4.3v2c0,1.5-0.6,2.8-1.9,3.9c-1.3,1.1-2.8,1.6-4.6,1.6
			c-1.8,0-3.3-0.5-4.6-1.6c-1.3-1.1-1.9-2.3-1.9-3.9L86.4-62L86.4-62z"/>
		<path class="st0" d="M103.2-67h4.3v24.7h-4.3V-67z"/>
		<path class="st0" d="M118.1-67c1.8,0.1,3.2,0.6,4.5,1.7c1.2,1.1,1.8,2.3,1.8,3.8v13.8c0,1.5-0.6,2.8-1.9,3.9
			c-1.3,1.1-2.8,1.6-4.6,1.6h-0.1h-6.4V-67h6.5H118.1z M115.8-63.5v17.8h2.2c0.6,0,1.1-0.2,1.5-0.6c0.4-0.4,0.6-0.9,0.6-1.4v-13.8
			c0-0.5-0.2-1-0.6-1.4c-0.4-0.4-0.9-0.6-1.5-0.6H115.8z M118.1-67c-0.1,0-0.2,0-0.2,0H118.1z"/>
		<path class="st0" d="M127.3-62c0-1.5,0.6-2.8,1.9-3.9c1.3-1.1,2.8-1.6,4.6-1.6s3.3,0.5,4.6,1.6c1.3,1.1,1.9,2.3,1.9,3.9v36.3H136
			v-20h-4.3v3.5h-4.3L127.3-62L127.3-62z M135.9-49.2v-5.7V-62c0-0.5-0.2-1-0.6-1.4c-0.4-0.4-0.9-0.6-1.5-0.6s-1.1,0.2-1.5,0.6
			c-0.4,0.4-0.6,0.9-0.6,1.4v7.1v5.8L135.9-49.2L135.9-49.2z"/>
		<g>
			<path class="st0" d="M59.8-34c0.9,0,1.7,0.3,2.4,0.8c0.7,0.6,1,1.2,1,2v2.8c0,0.8-0.3,1.4-1,2c-0.7,0.5-1.4,0.8-2.4,0.8
				c-0.9,0-1.7-0.3-2.4-0.8s-1-1.2-1-2v-1h2.2v1c0,0.3,0.1,0.5,0.3,0.7s0.5,0.3,0.8,0.3s0.6-0.1,0.8-0.3s0.3-0.4,0.3-0.7v-2.8
				c0-0.3-0.1-0.5-0.3-0.7c-0.2-0.2-0.5-0.3-0.8-0.3c-0.9,0-1.7-0.3-2.4-0.8s-1-1.2-1-2v-1c0-0.8,0.3-1.4,1-2
				c0.7-0.5,1.4-0.8,2.4-0.8c0.9,0,1.7,0.3,2.4,0.8s1,1.2,1,2v1h-2.2v-1c0-0.3-0.1-0.5-0.3-0.7S60.1-37,59.8-37s-0.6,0.1-0.8,0.3
				s-0.3,0.4-0.3,0.7v1c0,0.3,0.1,0.5,0.3,0.7C59.2-34.1,59.5-34,59.8-34z"/>
			<path class="st0" d="M59.8-25.4c-1,0-1.8-0.3-2.5-0.9c-0.7-0.6-1.1-1.3-1.1-2.2v-1.2h2.7v1.2c0,0.2,0.1,0.4,0.3,0.6
				c0.2,0.2,0.4,0.2,0.6,0.2c0.3,0,0.5-0.1,0.6-0.2c0.2-0.2,0.3-0.3,0.3-0.6v-2.8c0-0.2-0.1-0.4-0.3-0.6c-0.2-0.2-0.4-0.2-0.6-0.2
				c-1,0-1.8-0.3-2.5-0.9c-0.7-0.6-1.1-1.3-1.1-2.2v-1c0-0.8,0.4-1.6,1.1-2.2c0.7-0.6,1.5-0.9,2.5-0.9s1.8,0.3,2.5,0.9
				c0.7,0.6,1.1,1.3,1.1,2.2v1.2h-2.7v-1.2c0-0.2-0.1-0.4-0.3-0.6C60.2-37,60-37,59.8-37c-0.3,0-0.5,0.1-0.6,0.2
				c-0.2,0.2-0.3,0.3-0.3,0.6v1c0,0.2,0.1,0.4,0.3,0.6c0.2,0.2,0.4,0.2,0.6,0.2c1,0,1.8,0.3,2.5,0.9c0.7,0.6,1.1,1.3,1.1,2.2v2.8
				c0,0.8-0.4,1.6-1.1,2.2C61.7-25.7,60.8-25.4,59.8-25.4z M56.7-29.2v0.8c0,0.7,0.3,1.3,0.9,1.8c0.6,0.5,1.4,0.8,2.2,0.8
				c0.9,0,1.6-0.3,2.2-0.8c0.6-0.5,0.9-1.1,0.9-1.8v-2.8c0-0.7-0.3-1.3-0.9-1.8c-0.6-0.5-1.4-0.8-2.2-0.8c-0.4,0-0.7-0.1-0.9-0.4
				c-0.3-0.2-0.4-0.5-0.4-0.9v-1c0-0.3,0.1-0.6,0.4-0.9c0.3-0.2,0.6-0.4,0.9-0.4c0.4,0,0.7,0.1,0.9,0.4c0.3,0.2,0.4,0.5,0.4,0.9v0.8
				H63v-0.8c0-0.7-0.3-1.3-0.9-1.8c-0.6-0.5-1.4-0.8-2.2-0.8c-0.9,0-1.6,0.3-2.2,0.8c-0.6,0.5-0.9,1.1-0.9,1.8v1
				c0,0.7,0.3,1.3,0.9,1.8c0.6,0.5,1.4,0.8,2.2,0.8c0.4,0,0.7,0.1,0.9,0.4c0.3,0.2,0.4,0.5,0.4,0.9v2.8c0,0.3-0.1,0.6-0.4,0.9
				c-0.3,0.2-0.6,0.4-0.9,0.4c-0.4,0-0.7-0.1-0.9-0.4c-0.3-0.2-0.4-0.5-0.4-0.9v-0.8H56.7z"/>
		</g>
		<g>
			<path class="st0" d="M70.8-27.6v1.8h-3.4h-2.2v-1.8v-9.2v-1.8h2.2h2.2v1.8h-2.2v3.8h3.4v1.8h-3.4v3.7L70.8-27.6L70.8-27.6z"/>
			<path class="st0" d="M71-25.6h-6.1v-13.3h4.9v2.3h-2.2v3.3H71v2.3h-3.4v3.1H71V-25.6z M65.4-26.1h5.1v-1.3h-3.4v-4.1h3.4v-1.4
				h-3.4v-4.2h2.2v-1.3h-4v12.3H65.4z"/>
		</g>
		<g>
			<path class="st0" d="M72.8-38.6H75v10.2c0,0.3,0.1,0.5,0.3,0.7c0.2,0.2,0.5,0.3,0.8,0.3s0.6-0.1,0.8-0.3c0.2-0.2,0.3-0.4,0.3-0.7
				v-10.2h2.2v10.2c0,0.8-0.3,1.4-1,2c-0.7,0.5-1.4,0.8-2.4,0.8s-1.7-0.3-2.4-0.8c-0.7-0.5-1-1.2-1-2v-10.2H72.8z"/>
			<path class="st0" d="M76.1-25.4c-1,0-1.8-0.3-2.5-0.9c-0.7-0.6-1.1-1.3-1.1-2.2v-10.4h2.7v10.5c0,0.2,0.1,0.4,0.3,0.6
				c0.2,0.2,0.4,0.2,0.6,0.2c0.3,0,0.5-0.1,0.6-0.2c0.2-0.2,0.3-0.3,0.3-0.6v-10.5h2.7v10.5c0,0.8-0.4,1.6-1.1,2.2
				C78-25.7,77.1-25.4,76.1-25.4z M73-38.4v10c0,0.7,0.3,1.3,0.9,1.8s1.4,0.8,2.2,0.8c0.9,0,1.6-0.3,2.2-0.8s0.9-1.1,0.9-1.8v-10
				h-1.8v10c0,0.3-0.1,0.6-0.4,0.9c-0.3,0.2-0.6,0.4-0.9,0.4c-0.4,0-0.7-0.1-0.9-0.4c-0.3-0.2-0.4-0.5-0.4-0.9v-10H73z"/>
		</g>
		<path class="st0" d="M96.3-39l-6.9,20.5L82.5-39h3.7l3.2,9.6l3.2-9.6H96.3z"/>
		<path class="st0" d="M97.4-34.9c0-1.2,0.5-2.3,1.5-3.1c1-0.9,2.3-1.3,3.7-1.3c1.5,0,2.7,0.4,3.7,1.3c1,0.9,1.5,1.9,1.5,3.1v12
			c0,1.2-0.5,2.3-1.5,3.1c-1,0.9-2.3,1.3-3.7,1.3c-1.5,0-2.7-0.4-3.7-1.3s-1.5-1.9-1.5-3.1V-34.9z M100.9-34.9v12
			c0,0.4,0.2,0.8,0.5,1.1c0.3,0.3,0.8,0.5,1.2,0.5c0.5,0,0.9-0.2,1.2-0.5c0.3-0.3,0.5-0.7,0.5-1.1v-12c0-0.4-0.2-0.8-0.5-1.1
			s-0.8-0.5-1.2-0.5c-0.5,0-0.9,0.2-1.2,0.5S100.9-35.4,100.9-34.9z"/>
		<path class="st0" d="M118.5-39v2.8h-2.6v17.3h-3.5v-17.2h-2.6v-2.8L118.5-39L118.5-39z"/>
		<path class="st0" d="M120.9-34.9c0-1.2,0.5-2.3,1.5-3.1c1-0.9,2.3-1.3,3.7-1.3s2.7,0.4,3.7,1.3c1,0.9,1.5,1.9,1.5,3.1v12
			c0,1.2-0.5,2.3-1.5,3.1c-1,0.9-2.3,1.3-3.7,1.3s-2.7-0.4-3.7-1.3s-1.5-1.9-1.5-3.1C120.9-22.9,120.9-34.9,120.9-34.9z M124.4-34.9
			v12c0,0.4,0.2,0.8,0.5,1.1c0.3,0.3,0.8,0.5,1.2,0.5c0.5,0,0.9-0.2,1.2-0.5c0.3-0.3,0.5-0.7,0.5-1.1v-12c0-0.4-0.2-0.8-0.5-1.1
			s-0.8-0.5-1.2-0.5c-0.5,0-0.9,0.2-1.2,0.5S124.4-35.4,124.4-34.9z"/>
	</g>
	<rect x="56.5" y="-22.6" class="st1" width="23.6" height="3.2"/>
	<rect x="135.9" y="-22.6" class="st1" width="4.3" height="3.2"/>
</g>
<g>
	<g>
		<path class="st2" d="M89.4,18c1.9,0.1,3.4,0.6,4.6,1.7c1.3,1.1,1.9,2.4,1.9,3.9V38c0,1.6-0.6,2.9-2,4c-1.3,1.1-2.9,1.7-4.8,1.7
			h-0.1h-6.7V18h6.8H89.4z M86.9,21.5v18.5h2.3c0.6,0,1.2-0.2,1.6-0.6c0.5-0.4,0.6-0.9,0.6-1.4V23.6c0-0.6-0.2-1-0.6-1.4
			c-0.5-0.4-1-0.6-1.6-0.6L86.9,21.5L86.9,21.5z M89.4,18c-0.1,0-0.2,0-0.2,0H89.4z"/>
		<path class="st2" d="M111.2,40.1v3.6h-6.8H100v-3.6V21.5V18h4.5h4.5v3.6h-4.5v3.6h6.8v3.6h-6.8v11.3
			C104.5,40.1,111.2,40.1,111.2,40.1z"/>
		<path class="st2" d="M113.6,23.1c0-1.6,0.6-2.9,2-4c1.3-1.1,2.9-1.7,4.8-1.7c1.9,0,3.5,0.6,4.8,1.7s2,2.4,2,4v2h-4.5v-2
			c0-0.6-0.2-1-0.6-1.4c-0.5-0.4-1-0.6-1.6-0.6c-0.6,0-1.2,0.2-1.6,0.6c-0.5,0.4-0.6,0.9-0.6,1.4v15.4c0,0.6,0.2,1,0.6,1.4
			c0.5,0.4,1,0.6,1.6,0.6c0.6,0,1.2-0.2,1.6-0.6c0.5-0.4,0.6-0.9,0.6-1.4v-2h4.5v2c0,1.6-0.6,2.9-2,4c-1.3,1.1-2.9,1.7-4.8,1.7
			c-1.9,0-3.5-0.6-4.8-1.7c-1.3-1.1-2-2.4-2-4V23.1z"/>
		<path class="st2" d="M131.1,18h4.5v25.7h-4.5V18z"/>
		<path class="st2" d="M146.6,18c1.9,0.1,3.4,0.6,4.6,1.7c1.3,1.1,1.9,2.4,1.9,3.9V38c0,1.6-0.6,2.9-2,4c-1.3,1.1-2.9,1.7-4.8,1.7
			h-0.1h-6.7V18h6.8H146.6z M144.2,21.5v18.5h2.3c0.6,0,1.2-0.2,1.6-0.6c0.5-0.4,0.6-0.9,0.6-1.4V23.6c0-0.6-0.2-1-0.6-1.4
			c-0.5-0.4-1-0.6-1.6-0.6L144.2,21.5L144.2,21.5z M146.6,18c-0.1,0-0.2,0-0.2,0H146.6z"/>
		<path class="st2" d="M156.2,23.1c0-1.6,0.6-2.9,2-4s2.9-1.7,4.8-1.7s3.5,0.6,4.8,1.7s2,2.4,2,4v37.8h-4.5V40.1h-4.5v3.6h-4.5V23.1
			L156.2,23.1z M165.2,36.5v-6v-7.4c0-0.6-0.2-1-0.6-1.4c-0.5-0.4-1-0.6-1.6-0.6c-0.6,0-1.2,0.2-1.6,0.6c-0.5,0.4-0.6,0.9-0.6,1.4
			v7.4v6L165.2,36.5L165.2,36.5z"/>
		<g>
			<path class="st2" d="M86,52.3c1,0,1.8,0.3,2.5,0.9s1,1.3,1,2.1v3c0,0.8-0.3,1.5-1,2.1c-0.7,0.6-1.5,0.9-2.5,0.9
				c-1,0-1.8-0.3-2.5-0.9s-1-1.3-1-2.1v-1h2.3v1c0,0.3,0.1,0.5,0.3,0.8c0.2,0.2,0.5,0.3,0.8,0.3c0.3,0,0.6-0.1,0.8-0.3
				c0.2-0.2,0.3-0.5,0.3-0.8v-3c0-0.3-0.1-0.5-0.3-0.8c-0.2-0.2-0.5-0.3-0.8-0.3c-1,0-1.8-0.3-2.5-0.9s-1-1.3-1-2.1v-1
				c0-0.8,0.3-1.5,1-2.1c0.7-0.6,1.5-0.9,2.5-0.9c1,0,1.8,0.3,2.5,0.9c0.7,0.6,1,1.3,1,2.1v1h-2.3v-1c0-0.3-0.1-0.5-0.3-0.8
				c-0.2-0.2-0.5-0.3-0.8-0.3c-0.3,0-0.6,0.1-0.8,0.3c-0.2,0.2-0.3,0.5-0.3,0.8v1c0,0.3,0.1,0.5,0.3,0.8
				C85.3,52.1,85.6,52.3,86,52.3z"/>
			<path class="st2" d="M86,61.3c-1,0-1.9-0.3-2.6-0.9c-0.8-0.6-1.1-1.4-1.1-2.3v-1.3h2.8v1.3c0,0.2,0.1,0.4,0.3,0.6
				c0.2,0.2,0.4,0.2,0.6,0.2c0.3,0,0.5-0.1,0.6-0.2c0.2-0.2,0.3-0.3,0.3-0.6v-3c0-0.2-0.1-0.4-0.3-0.6c-0.2-0.2-0.4-0.2-0.6-0.2
				c-1,0-1.9-0.3-2.6-0.9c-0.8-0.6-1.1-1.4-1.1-2.3v-1c0-0.9,0.3-1.6,1.1-2.3c0.7-0.6,1.6-0.9,2.6-0.9c1,0,1.9,0.3,2.6,0.9
				c0.8,0.6,1.1,1.4,1.1,2.3v1.3h-2.8v-1.3c0-0.2-0.1-0.4-0.3-0.6c-0.2-0.2-0.4-0.2-0.6-0.2c-0.3,0-0.5,0.1-0.6,0.2
				c-0.2,0.2-0.3,0.3-0.3,0.6v1c0,0.2,0.1,0.4,0.3,0.6C85.5,52,85.7,52,86,52c1,0,1.9,0.3,2.6,0.9c0.8,0.6,1.1,1.4,1.1,2.3v3
				c0,0.9-0.3,1.6-1.1,2.3C87.9,61,86.9,61.3,86,61.3z M82.7,57.3v0.8c0,0.8,0.3,1.4,0.9,1.9c0.6,0.5,1.4,0.8,2.3,0.8
				c0.9,0,1.7-0.3,2.3-0.8c0.6-0.5,0.9-1.2,0.9-1.9v-3c0-0.8-0.3-1.4-0.9-1.9c-0.6-0.5-1.4-0.8-2.3-0.8c-0.4,0-0.7-0.1-1-0.3
				c-0.3-0.2-0.4-0.6-0.4-0.9v-1c0-0.3,0.1-0.7,0.4-0.9c0.3-0.2,0.6-0.3,1-0.3s0.7,0.1,1,0.3s0.4,0.6,0.4,0.9v0.8h1.9v-0.8
				c0-0.8-0.3-1.4-0.9-1.9c-0.6-0.5-1.4-0.8-2.3-0.8c-0.9,0-1.7,0.3-2.3,0.8c-0.6,0.5-0.9,1.2-0.9,1.9v1c0,0.8,0.3,1.4,0.9,1.9
				c0.6,0.5,1.4,0.8,2.3,0.8c0.4,0,0.7,0.1,1,0.3c0.3,0.2,0.4,0.6,0.4,0.9v3c0,0.3-0.1,0.7-0.4,0.9c-0.3,0.2-0.6,0.3-1,0.3
				s-0.7-0.1-1-0.3s-0.4-0.6-0.4-0.9v-0.8H82.7z"/>
		</g>
		<g>
			<path class="st2" d="M97.4,58.9v1.9h-3.5h-2.3v-1.9v-9.5v-1.9h2.3h2.3v1.9h-2.3v3.9h3.5v1.9h-3.5V59L97.4,58.9L97.4,58.9z"/>
			<path class="st2" d="M97.6,61.1h-6.3V47.2h5.1v2.4h-2.3V53h3.5v2.4h-3.5v3.4h3.5V61.1z M91.7,60.6h5.4v-1.4h-3.5v-4.3h3.5v-1.4
				h-3.5v-4.4H96v-1.4h-4.2V60.6z"/>
		</g>
		<g>
			<path class="st2" d="M99.4,47.5h2.3v10.6c0,0.3,0.1,0.5,0.3,0.8c0.2,0.2,0.5,0.3,0.8,0.3c0.3,0,0.6-0.1,0.8-0.3
				c0.2-0.2,0.3-0.5,0.3-0.8V47.5h2.3v10.6c0,0.8-0.3,1.5-1,2.1c-0.7,0.6-1.5,0.9-2.5,0.9c-1,0-1.8-0.3-2.5-0.9
				c-0.7-0.6-1-1.3-1-2.1V47.5H99.4z"/>
			<path class="st2" d="M102.9,61.3c-1,0-1.9-0.3-2.6-0.9c-0.8-0.6-1.1-1.4-1.1-2.3V47.2h2.8v10.9c0,0.2,0.1,0.4,0.3,0.6
				c0.2,0.2,0.4,0.2,0.6,0.2c0.3,0,0.5-0.1,0.6-0.2c0.2-0.2,0.3-0.3,0.3-0.6V47.2h2.8v10.9c0,0.9-0.3,1.6-1.1,2.3
				C104.8,61,103.9,61.3,102.9,61.3z M99.7,47.7v10.4c0,0.8,0.3,1.4,0.9,1.9s1.4,0.8,2.3,0.8s1.7-0.3,2.3-0.8s0.9-1.2,0.9-1.9V47.7
				h-1.8v10.4c0,0.3-0.1,0.7-0.4,0.9c-0.3,0.2-0.6,0.3-1,0.3s-0.7-0.1-1-0.3c-0.3-0.2-0.4-0.6-0.4-0.9V47.7H99.7z"/>
		</g>
		<path class="st2" d="M124,47.1l-7.2,21.3l-7.2-21.3h3.8l3.4,10l3.4-10H124z"/>
		<path class="st2" d="M125,51.3c0-1.3,0.5-2.4,1.6-3.2c1-0.9,2.4-1.3,3.9-1.3c1.5,0,2.8,0.5,3.9,1.3c1,0.9,1.6,2,1.6,3.2v12.6
			c0,1.3-0.5,2.4-1.6,3.2c-1.1,0.9-2.4,1.3-3.9,1.3s-2.8-0.5-3.9-1.3c-1.1-0.9-1.6-2-1.6-3.2V51.3z M128.7,51.3v12.6
			c0,0.5,0.2,0.9,0.5,1.2s0.8,0.5,1.3,0.5c0.5,0,0.9-0.2,1.3-0.5c0.3-0.3,0.5-0.7,0.5-1.2V51.3c0-0.5-0.2-0.9-0.5-1.2
			s-0.8-0.5-1.3-0.5c-0.5,0-0.9,0.2-1.3,0.5C128.9,50.5,128.7,50.9,128.7,51.3z"/>
		<path class="st2" d="M147.1,47.1v3h-2.8v18h-3.6v-18h-2.8v-3H147.1z"/>
		<path class="st2" d="M149.5,51.3c0-1.3,0.5-2.4,1.6-3.2c1-0.9,2.4-1.3,3.9-1.3s2.8,0.5,3.9,1.3c1,0.9,1.6,2,1.6,3.2v12.6
			c0,1.3-0.5,2.4-1.6,3.2c-1.1,0.9-2.4,1.3-3.9,1.3s-2.8-0.5-3.9-1.3c-1.1-0.9-1.6-2-1.6-3.2V51.3z M153.2,51.3v12.6
			c0,0.5,0.2,0.9,0.5,1.2s0.8,0.5,1.3,0.5c0.5,0,0.9-0.2,1.3-0.5c0.3-0.3,0.5-0.7,0.5-1.2V51.3c0-0.5-0.2-0.9-0.5-1.2
			c-0.3-0.3-0.8-0.5-1.3-0.5c-0.5,0-0.9,0.2-1.3,0.5C153.4,50.5,153.2,50.9,153.2,51.3z"/>
	</g>
	<rect x="82.4" y="64.1" class="st3" width="24.5" height="3.3"/>
	<rect x="165.2" y="64.1" class="st3" width="4.5" height="3.3"/>
	<g transform="translate(0,-1036.3622)">
		<g id="XMLID_1_">
			<g>
				<path d="M76.8,1089.1c0,8-6.7,14.7-15,14.7s-15-6.7-15-14.8v-1.9h-20v-33.3h46.7v26.7h3.3L76.8,1089.1z M61.8,1100.5
					c6.5,0,11.7-5.2,11.7-11.4v-5.3H60.2v-1.7l0,0v-13.3c0-0.9-0.7-1.7-1.7-1.7s-1.7,0.7-1.7,1.7v21.7h-3.4v-6.7h-1.6
					c-0.9,0-1.7,0.7-1.7,1.7l-0.1,3.5C50.1,1095.3,55.4,1100.5,61.8,1100.5z M70.2,1080.4v-23.3H30.1v26.7h17.1
					c0.7-1.9,2.5-3.3,4.7-3.3h1.6v-11.7c0-2.7,2.3-5,5-5s5,2.3,5,5v11.6H70.2z"/>
				<path class="st0" d="M73.5,1089.1c0,6.1-5.2,11.4-11.7,11.4s-11.7-5.2-11.7-11.5l0.1-3.5c0-1,0.7-1.7,1.7-1.7h1.6v6.7h3.4v-21.7
					c0-0.9,0.7-1.7,1.7-1.7s1.7,0.7,1.7,1.7v13.3l0,0v1.7h13.3L73.5,1089.1z"/>
				<path class="st3" d="M70.2,1057.1v23.3h-6.7v-11.6c0-2.7-2.3-5-5-5s-5,2.3-5,5v11.7h-1.6c-2.1,0-4,1.4-4.7,3.3h-17v-26.7H70.2z"
					/>
			</g>
		</g>
	</g>
	<g id="XMLID_2_">
		<g>
			<polygon points="51.8,30 42,39.8 36.2,34 38.5,31.8 42,35.4 49.6,27.9 			"/>
		</g>
	</g>
</g>
</svg>
